<svg width="488" height="500" viewBox="0 0 488 500" fill="none" xmlns="http://www.w3.org/2000/svg">
<path d="M246.987 430.723C346.797 430.723 427.71 349.811 427.71 250C427.71 150.19 346.797 69.2773 246.987 69.2773C147.176 69.2773 66.2637 150.19 66.2637 250C66.2637 349.811 147.176 430.723 246.987 430.723Z" stroke="#FFFBF5" stroke-width="22" stroke-miterlimit="10"/>
<path d="M243.979 328.313C285.567 328.313 319.28 294.6 319.28 253.012C319.28 211.424 285.567 177.711 243.979 177.711C202.391 177.711 168.678 211.424 168.678 253.012C168.678 294.6 202.391 328.313 243.979 328.313Z" stroke="#FFFBF5" stroke-width="22" stroke-miterlimit="10"/>
<path d="M265.059 28.907C265.059 44.8692 256.294 177.711 245.481 177.711C234.667 177.711 225.902 44.8692 225.902 28.907C225.902 12.9447 234.667 0 245.481 0C256.294 0 265.059 12.9447 265.059 28.907Z" fill="#FFFBF5"/>
<path d="M412.684 106.891C402.605 118.717 312.474 211.462 304.756 204.441C297.037 197.42 374.632 93.3058 384.71 81.48C394.788 69.6543 409.226 65.7462 416.944 72.7672C424.663 79.7713 422.762 95.0653 412.684 106.891Z" fill="#FFFBF5"/>
<path d="M78.5114 106.891C88.8482 118.717 181.29 211.462 189.207 204.441C197.123 197.42 117.539 93.3058 107.202 81.48C96.8654 69.6543 82.0579 65.7462 74.1414 72.7672C66.225 79.7882 68.1747 95.0653 78.5114 106.891Z" fill="#FFFBF5"/>
<path d="M265.059 472.562C265.059 457.411 256.294 331.324 245.481 331.324C234.667 331.324 225.902 457.411 225.902 472.562C225.902 487.713 234.667 499.999 245.481 499.999C256.294 499.999 265.059 487.713 265.059 472.562Z" fill="#FFFBF5"/>
<path d="M460.742 234.945C445.591 234.755 319.408 241.257 319.277 251.226C319.147 261.21 445.12 270.892 460.27 271.083C475.421 271.273 487.821 263.34 487.951 253.356C488.081 243.388 475.909 235.136 460.742 234.945Z" fill="#FFFBF5"/>
<path d="M27.1965 234.946C42.3485 234.739 168.545 241.783 168.675 252.582C168.805 263.398 42.8205 273.887 27.6685 274.094C12.5328 274.318 0.131234 265.723 0.00103472 254.907C-0.129165 244.091 12.0445 235.153 27.1965 234.946Z" fill="#FFFBF5"/>
<path d="M412.684 400.807C402.605 389.506 312.474 300.883 304.756 307.592C297.037 314.301 374.632 413.788 384.71 425.088C394.788 436.388 409.226 440.123 416.944 433.414C424.663 426.721 422.762 412.123 412.684 400.807Z" fill="#FFFBF5"/>
<path d="M78.5114 400.807C88.8482 389.507 181.29 300.884 189.207 307.592C197.123 314.301 117.539 413.788 107.202 425.088C96.8654 436.388 82.0579 440.123 74.1414 433.414C66.225 426.705 68.1747 412.123 78.5114 400.807Z" fill="#FFFBF5"/>
</svg>
