<svg width="38" height="33" viewBox="0 0 38 33" fill="none" xmlns="http://www.w3.org/2000/svg">
<path d="M36.0999 28.125L24.1429 16.5M13.8571 16.5L1.90006 28.125M1 6.8125L15.6969 17.8862C16.887 18.7829 17.482 19.2312 18.1293 19.4049C18.701 19.5583 19.299 19.5583 19.8707 19.4049C20.518 19.2312 21.113 18.7829 22.3031 17.8862L37 6.8125M9.64 32H28.36C31.3843 32 32.8964 32 34.0515 31.3665C35.0676 30.8092 35.8937 29.92 36.4114 28.8263C37 27.583 37 25.9553 37 22.7V10.3C37 7.04469 37 5.41704 36.4114 4.17368C35.8937 3.07999 35.0676 2.19079 34.0515 1.63352C32.8964 1 31.3843 1 28.36 1H9.64C6.61572 1 5.10357 1 3.94845 1.63352C2.93238 2.19079 2.10628 3.07999 1.58856 4.17368C1 5.41704 1 7.04469 1 10.3V22.7C1 25.9553 1 27.583 1.58856 28.8263C2.10628 29.92 2.93238 30.8092 3.94845 31.3665C5.10357 32 6.61572 32 9.64 32Z" stroke="#FFFBF5" stroke-linecap="round" stroke-linejoin="round"/>
</svg>
