<svg width="144" height="160" viewBox="0 0 144 160" fill="none" xmlns="http://www.w3.org/2000/svg">
<g style="mix-blend-mode:lighten">
<path d="M138.68 64.2308C135.72 61.2301 131.874 59.66 127.908 59.8995C123.919 60.1057 120.239 62.0352 117.554 65.3352L95.3324 92.6336C93.4627 85.2618 87.3834 79.8394 80.1965 79.8394H15.5386C7.33357 79.8394 0.652832 87.2977 0.652832 96.4726V143.046C0.652832 152.22 7.33357 159.679 15.5386 159.679H82.3698L139.763 87.7102C145.188 80.9039 144.7 70.3784 138.674 64.2374L138.68 64.2308ZM135.322 83.2724L79.7083 153.019H15.5386C10.6144 153.019 6.60715 148.541 6.60715 143.039V96.4659C6.60715 90.9636 10.6144 86.486 15.5386 86.486H80.1905C85.5792 86.486 89.9675 91.3895 89.9675 97.4173C89.9675 102.82 86.3592 107.47 81.6077 108.222L47.9003 113.126L48.6684 119.726L82.4115 114.816C88.4968 113.844 93.3972 108.974 95.1895 102.687L121.954 69.8195C123.574 67.8302 125.789 66.6659 128.188 66.5461C130.558 66.4064 132.892 67.3512 134.667 69.1542C138.293 72.8534 138.584 79.1873 135.316 83.2791L135.322 83.2724ZM42.333 19.9598H66.1503V26.6131H42.333V19.9598ZM89.9675 13.3066C89.9675 5.96799 84.6265 0 78.0589 0H30.4244C23.8568 0 18.5158 5.96799 18.5158 13.3066V66.5328H89.9675V13.3066ZM84.0132 59.8795H24.4701V13.3066C24.4701 9.63395 27.1436 6.65328 30.4244 6.65328H78.0589C81.3397 6.65328 84.0132 9.63395 84.0132 13.3066V59.8795Z" fill="#FFFBF5"/>
</g>
</svg>
