<svg width="195" height="194" viewBox="0 0 195 194" fill="none" xmlns="http://www.w3.org/2000/svg">
<g clip-path="url(#clip0_2507_6997)">
<path d="M89.1144 44.3169C90.8875 40.5442 92.0104 36.6976 92.3158 32.8412C92.3552 32.3585 92.3946 31.8808 92.3946 31.3981L92.4192 30.679L92.4044 29.96C92.3995 29.7235 92.3995 29.4773 92.3847 29.2507C92.3601 29.0291 92.3453 28.8075 92.3256 28.5908C92.3158 28.3691 92.2764 28.1524 92.237 27.9406C92.1926 27.7239 92.1779 27.5072 92.1188 27.2954C91.7395 25.5913 90.9416 24.0152 89.9517 22.1732C89.4789 21.2473 88.9814 20.2425 88.5874 19.1393C88.2032 18.0262 87.957 16.8048 87.9176 15.5932C87.8289 13.1897 88.4495 10.865 89.4887 8.87027C90.5279 6.87065 91.9168 5.15668 93.4732 3.6939C94.2612 2.96989 95.0689 2.29022 95.9309 1.67949C96.3692 1.38398 96.7928 1.07369 97.2311 0.792956C97.6842 0.526996 98.1275 0.251185 98.5855 0L96.6943 2.4626C96.0885 3.29003 95.5024 4.10761 94.9557 4.94489C93.8672 6.61454 92.9413 8.34328 92.3355 10.1016C91.7346 11.8549 91.4637 13.6576 91.6509 15.3518C91.7986 17.0215 92.5078 18.5631 93.4584 20.3558C93.9115 21.2522 94.4237 22.2077 94.8522 23.2666C95.266 24.3206 95.6304 25.4485 95.7979 26.6256C95.8521 26.9162 95.8619 27.2117 95.8964 27.5072C95.9259 27.8027 95.9555 28.0933 95.9456 28.3839L95.9407 29.2606C95.9309 29.5462 95.8964 29.8122 95.8767 30.088L95.8028 30.9056L95.6846 31.7183C95.6107 32.26 95.4925 32.7969 95.3743 33.3288C94.3942 37.5743 92.2222 41.4997 89.1144 44.3169Z" fill="#FFFBF5"/>
<path d="M108.042 44.3169C104.935 41.4997 102.763 37.5743 101.792 33.3288C101.679 32.7969 101.556 32.26 101.482 31.7183L101.364 30.9056L101.29 30.088C101.27 29.8122 101.236 29.5462 101.226 29.2606L101.221 28.3839C101.211 28.0933 101.241 27.7978 101.27 27.5072C101.305 27.2166 101.31 26.9162 101.369 26.6256C101.536 25.4534 101.906 24.3255 102.314 23.2666C102.738 22.2077 103.255 21.2571 103.708 20.3558C104.659 18.5631 105.363 17.0215 105.516 15.3518C105.703 13.6576 105.437 11.8549 104.831 10.1016C104.225 8.34328 103.299 6.61454 102.211 4.94489C101.664 4.10761 101.073 3.29003 100.472 2.4626L98.5811 0C99.0391 0.251185 99.4824 0.526996 99.9355 0.792956C100.379 1.07369 100.797 1.38398 101.236 1.67949C102.093 2.29022 102.905 2.96989 103.693 3.6939C105.245 5.15668 106.634 6.86572 107.678 8.87027C108.717 10.8699 109.338 13.1897 109.249 15.5932C109.205 16.7998 108.963 18.0262 108.574 19.1344C108.18 20.2425 107.683 21.2424 107.21 22.1683C106.22 24.0103 105.417 25.5864 105.043 27.2905C104.984 27.5023 104.964 27.719 104.925 27.9357C104.885 28.1524 104.846 28.3642 104.836 28.5858C104.821 28.8075 104.802 29.0242 104.777 29.2458C104.762 29.4724 104.767 29.7186 104.757 29.955L104.742 30.6741L104.767 31.3932C104.767 31.8759 104.807 32.3536 104.846 32.8363C105.146 36.6927 106.269 40.5393 108.042 44.3169Z" fill="#FFFBF5"/>
</g>
<g clip-path="url(#clip1_2507_6997)">
<path d="M150.487 87.6244C154.26 89.3975 158.106 90.5204 161.963 90.8258C162.445 90.8652 162.923 90.9046 163.406 90.9046L164.125 90.9292L164.844 90.9144C165.08 90.9095 165.326 90.9095 165.553 90.8947C165.775 90.8701 165.996 90.8553 166.213 90.8356C166.435 90.8258 166.651 90.7864 166.863 90.747C167.08 90.7026 167.297 90.6879 167.508 90.6288C169.212 90.2495 170.788 89.4516 172.63 88.4617C173.556 87.9889 174.561 87.4914 175.664 87.0974C176.778 86.7132 177.999 86.467 179.211 86.4276C181.614 86.3389 183.939 86.9595 185.933 87.9987C187.933 89.0379 189.647 90.4268 191.11 91.9832C191.834 92.7712 192.513 93.579 193.124 94.4409C193.42 94.8792 193.73 95.3028 194.011 95.7411C194.277 96.1942 194.553 96.6375 194.804 97.0955L192.341 95.2043C191.514 94.5985 190.696 94.0124 189.859 93.4657C188.189 92.3772 186.46 91.4513 184.702 90.8455C182.949 90.2446 181.146 89.9737 179.452 90.1609C177.782 90.3086 176.241 91.0179 174.448 91.9684C173.551 92.4215 172.596 92.9338 171.537 93.3622C170.483 93.776 169.355 94.1404 168.178 94.3079C167.888 94.3621 167.592 94.3719 167.297 94.4064C167.001 94.4359 166.71 94.4655 166.42 94.4556L165.543 94.4507C165.257 94.4409 164.992 94.4064 164.716 94.3867L163.898 94.3128L163.085 94.1946C162.544 94.1207 162.007 94.0025 161.475 93.8843C157.229 92.9042 153.304 90.7322 150.487 87.6244Z" fill="#FFFBF5"/>
<path d="M150.487 106.552C153.304 103.445 157.229 101.273 161.475 100.302C162.007 100.189 162.544 100.066 163.085 99.992L163.898 99.8738L164.716 99.7999C164.992 99.7802 165.257 99.7457 165.543 99.7359L166.42 99.731C166.71 99.7211 167.006 99.7507 167.297 99.7802C167.587 99.8147 167.888 99.8196 168.178 99.8787C169.35 100.046 170.478 100.416 171.537 100.824C172.596 101.248 173.547 101.765 174.448 102.218C176.241 103.169 177.782 103.873 179.452 104.026C181.146 104.213 182.949 103.947 184.702 103.341C186.46 102.735 188.189 101.809 189.859 100.721C190.696 100.174 191.514 99.5832 192.341 98.9823L194.804 97.0911C194.553 97.5491 194.277 97.9924 194.011 98.4455C193.73 98.8888 193.42 99.3074 193.124 99.7457C192.513 100.603 191.834 101.415 191.11 102.203C189.647 103.755 187.938 105.144 185.933 106.188C183.934 107.227 181.614 107.848 179.211 107.759C178.004 107.715 176.778 107.473 175.669 107.084C174.561 106.69 173.561 106.193 172.635 105.72C170.793 104.73 169.217 103.927 167.513 103.553C167.301 103.494 167.085 103.474 166.868 103.435C166.651 103.395 166.44 103.356 166.218 103.346C165.996 103.331 165.78 103.312 165.558 103.287C165.331 103.272 165.085 103.277 164.849 103.267L164.13 103.252L163.411 103.277C162.928 103.277 162.45 103.317 161.967 103.356C158.111 103.656 154.264 104.779 150.487 106.552Z" fill="#FFFBF5"/>
</g>
<g clip-path="url(#clip2_2507_6997)">
<path d="M50.0698 70.9035C48.6559 66.9821 46.73 63.4681 44.219 60.5253C43.9056 60.1561 43.5956 59.7904 43.2543 59.4491L42.7633 58.9232L42.2444 58.4252C42.0737 58.2615 41.8996 58.0874 41.7289 57.9377C41.5548 57.7983 41.3876 57.6521 41.2205 57.5128C41.0568 57.363 40.8757 57.2376 40.6981 57.1157C40.5135 56.9939 40.3498 56.8511 40.1583 56.7431C38.6851 55.8063 37.0065 55.256 35.004 54.6535C34.0149 54.3331 32.9527 53.9744 31.894 53.4729C30.8352 52.9575 29.7974 52.2679 28.9128 51.439C27.1506 49.8022 25.9456 47.7196 25.27 45.5743C24.5909 43.4255 24.361 41.2314 24.4272 39.0966C24.4725 38.0274 24.563 36.9757 24.7406 35.9343C24.8416 35.4154 24.9217 34.8965 25.0332 34.3881C25.1655 33.8796 25.2839 33.3711 25.4302 32.8696L25.8342 35.9483C25.9909 36.9617 26.1546 37.9543 26.36 38.9329C26.771 40.8832 27.3387 42.7603 28.1536 44.432C28.9685 46.0967 30.0516 47.5629 31.382 48.6286C32.6671 49.7047 34.2587 50.2933 36.1985 50.8888C37.1527 51.2022 38.1906 51.5157 39.2423 51.9614C40.2802 52.4142 41.3354 52.954 42.2862 53.6679C42.5299 53.8351 42.7459 54.0371 42.9792 54.2217C43.209 54.4097 43.4354 54.5943 43.6339 54.8068L44.2504 55.4302C44.4454 55.6391 44.6091 55.8516 44.7902 56.0605L45.316 56.6909L45.8071 57.3491C46.1379 57.7844 46.434 58.2476 46.7265 58.7073C49.0355 62.4024 50.2753 66.7139 50.0698 70.9035Z" fill="#FFFBF5"/>
<path d="M63.4537 57.5194C59.2641 57.7249 54.9526 56.4851 51.2645 54.1691C50.8082 53.8731 50.3416 53.5806 49.9062 53.2497L49.248 52.7587L48.6176 52.2328C48.4087 52.0517 48.1962 51.888 47.9873 51.693L47.3639 51.0766C47.1515 50.878 46.9634 50.6482 46.7788 50.4218C46.5977 50.192 46.3888 49.976 46.2251 49.7288C45.5146 48.7815 44.9783 47.7228 44.5186 46.6849C44.0693 45.6367 43.7628 44.5988 43.4459 43.6411C42.8504 41.7013 42.2583 40.1132 41.1857 38.8246C40.12 37.4943 38.6573 36.4077 36.9891 35.5962C35.3175 34.7813 33.4403 34.2136 31.49 33.8027C30.5114 33.5972 29.5154 33.437 28.5054 33.2768L25.4268 32.8728C25.9283 32.7265 26.4367 32.6081 26.9452 32.4758C27.4571 32.3609 27.9726 32.2842 28.4915 32.1832C29.5293 32.0091 30.5845 31.9151 31.6537 31.8698C33.7851 31.8071 35.9757 32.0335 38.1314 32.7126C40.2802 33.3917 42.3593 34.5932 43.9962 36.3554C44.8181 37.24 45.5146 38.2779 46.0231 39.3366C46.5281 40.3988 46.8833 41.4575 47.2037 42.4466C47.8062 44.4491 48.353 46.1312 49.2933 47.6009C49.4012 47.7924 49.5405 47.9596 49.6659 48.1407C49.7913 48.3218 49.9132 48.4994 50.0629 48.6631C50.2092 48.8303 50.3485 48.9974 50.4878 49.1715C50.6376 49.3422 50.8152 49.5128 50.9754 49.687L51.4734 50.2059L51.9993 50.6969C52.3406 51.0382 52.7063 51.3482 53.0754 51.6616C56.0148 54.1761 59.5288 56.102 63.4537 57.5194Z" fill="#FFFBF5"/>
</g>
<g clip-path="url(#clip3_2507_6997)">
<path d="M133.456 55.9797C137.486 54.9148 141.155 53.3042 144.307 51.0607C144.702 50.7808 145.093 50.5041 145.463 50.194L146.03 49.751L146.572 49.2777C146.75 49.122 146.938 48.9638 147.103 48.807C147.257 48.6457 147.417 48.492 147.57 48.3377C147.734 48.1877 147.875 48.0183 148.012 47.8521C148.149 47.6789 148.306 47.5283 148.43 47.347C149.492 45.9616 150.188 44.3376 150.963 42.3956C151.369 41.4384 151.82 40.4117 152.412 39.401C153.018 38.3916 153.796 37.4181 154.699 36.6096C156.484 34.9976 158.664 33.9797 160.861 33.4947C163.061 33.0064 165.266 32.9697 167.387 33.2227C168.448 33.3615 169.488 33.5439 170.51 33.812C171.018 33.9581 171.528 34.0834 172.025 34.2389C172.519 34.4153 173.016 34.5778 173.502 34.7675L170.4 34.9002C169.377 34.9675 168.374 35.0435 167.381 35.1625C165.402 35.401 163.482 35.802 161.746 36.4673C160.016 37.1332 158.461 38.0837 157.282 39.3155C156.098 40.5014 155.372 42.0353 154.609 43.9155C154.213 44.8386 153.81 45.8449 153.274 46.8536C152.732 47.8477 152.102 48.8516 151.307 49.7362C151.119 49.9644 150.899 50.1618 150.695 50.378C150.487 50.5905 150.283 50.7998 150.054 50.979L149.379 51.5384C149.154 51.7144 148.928 51.8588 148.704 52.0209L148.03 52.4895L147.332 52.921C146.869 53.2124 146.382 53.4667 145.898 53.7179C142.015 55.6942 137.611 56.5515 133.456 55.9797Z" fill="#FFFBF5"/>
<path d="M145.615 70.4852C145.778 66.2937 147.39 62.1074 150.021 58.6364C150.355 58.2078 150.688 57.7686 151.055 57.3639L151.602 56.7513L152.181 56.1694C152.38 55.9771 152.562 55.7799 152.774 55.5888L153.443 55.0218C153.659 54.8276 153.905 54.6604 154.147 54.4964C154.391 54.3361 154.625 54.1469 154.885 54.0055C155.891 53.3808 156.993 52.9393 158.067 52.5723C159.151 52.2166 160.211 52.0022 161.193 51.7704C163.178 51.3472 164.812 50.8966 166.189 49.941C167.608 48.9959 168.818 47.6341 169.773 46.0434C170.731 44.4496 171.461 42.6294 172.041 40.7226C172.332 39.7658 172.579 38.7876 172.827 37.7956L173.499 34.7642C173.601 35.2765 173.674 35.7934 173.761 36.3115C173.831 36.8316 173.862 37.3517 173.917 37.8775C174 38.9266 174.001 39.986 173.953 41.0551C173.828 43.1837 173.411 45.346 172.545 47.434C171.681 49.515 170.302 51.4809 168.403 52.957C167.449 53.6982 166.355 54.3011 165.255 54.7149C164.153 55.1248 163.067 55.3859 162.054 55.6184C160.006 56.0431 158.283 56.4404 156.736 57.2483C156.536 57.3391 156.357 57.4632 156.166 57.5722C155.975 57.6813 155.787 57.7871 155.611 57.922C155.431 58.053 155.253 58.1771 155.067 58.3007C154.884 58.4349 154.698 58.5969 154.511 58.7412L153.95 59.1918L153.415 59.6726C153.045 59.9827 152.704 60.3198 152.36 60.6601C149.597 63.3678 147.371 66.6995 145.615 70.4852Z" fill="#FFFBF5"/>
</g>
<path d="M140.057 97.8171C140.047 103.155 139.074 108.493 137.159 113.545C135.224 118.583 132.341 123.355 128.526 127.404C124.716 131.448 120.004 134.764 114.74 136.934C109.492 139.123 103.741 140.166 98.0568 140.048C95.2146 139.984 92.3825 139.625 89.6213 139C86.8652 138.365 84.1851 137.47 81.6317 136.328C79.0783 135.182 76.6413 133.824 74.3716 132.24C72.0918 130.676 69.9689 128.91 68.0387 126.971C64.1629 123.104 61.0015 118.573 58.7976 113.614C58.5392 112.989 58.2505 112.37 58.0174 111.735C57.7894 111.095 57.5361 110.466 57.3335 109.821C57.1359 109.172 56.9079 108.532 56.7255 107.878C56.5583 107.224 56.3658 106.569 56.2189 105.905C55.616 103.258 55.236 100.552 55.1499 97.822C54.9776 92.3759 55.8642 86.8314 57.9364 81.6854C59.9832 76.5296 63.1598 71.787 67.147 67.807C71.1342 63.822 75.9574 60.6045 81.2467 58.4202C86.5359 56.2113 92.3065 55.1092 98.0568 55.1289C103.807 55.1634 109.557 56.3195 114.806 58.553C115.465 58.8236 116.103 59.1483 116.747 59.4435C117.385 59.7534 118.008 60.1027 118.636 60.4274C119.254 60.7718 119.852 61.1555 120.46 61.5147C121.058 61.8935 121.636 62.2969 122.223 62.6856C124.544 64.2943 126.651 66.1638 128.561 68.1858C132.366 72.2544 135.254 77.0265 137.184 82.0692C139.104 87.1365 140.067 92.4792 140.057 97.8171ZM139.652 97.8171C139.636 92.5284 138.451 87.2447 136.166 82.4873C133.911 77.7152 130.593 73.4892 126.661 70.0405C124.701 68.3088 122.558 66.7886 120.329 65.4455C119.761 65.1257 119.204 64.7912 118.626 64.4862C118.044 64.1959 117.471 63.886 116.883 63.6105C116.291 63.3448 115.708 63.0545 115.11 62.8036C114.507 62.5626 113.909 62.3068 113.301 62.0804C108.443 60.2356 103.25 59.3057 98.0568 59.3353C92.8638 59.3549 87.6911 60.3438 82.873 62.2133C78.0549 64.0926 73.6117 66.9018 69.8575 70.4341C62.3643 77.5086 57.7286 87.4464 57.3689 97.8171C57.1967 102.988 58.0681 108.242 60.0744 113.093C62.0604 117.948 65.1052 122.416 68.9658 126.066C70.9012 127.881 73.0341 129.5 75.2988 130.892C77.5786 132.265 79.9851 133.426 82.4879 134.316C87.4935 136.107 92.803 136.894 98.0568 136.766C108.575 136.525 118.819 132.56 126.697 125.628C130.623 122.165 133.942 117.934 136.196 113.157C138.481 108.399 139.662 103.106 139.652 97.8171Z" fill="#FFFBF5"/>
<path d="M152.185 95.7539C152.172 102.697 150.906 109.64 148.415 116.212C145.898 122.764 142.148 128.971 137.186 134.238C132.231 139.498 126.102 143.811 119.255 146.633C112.428 149.48 104.949 150.837 97.5552 150.683C93.8583 150.6 90.1746 150.133 86.5831 149.32C82.9983 148.495 79.5123 147.33 76.191 145.846C72.8697 144.355 69.7 142.589 66.7478 140.528C63.7824 138.493 61.0212 136.196 58.5105 133.675C53.4693 128.645 49.3572 122.752 46.4907 116.301C46.1546 115.489 45.779 114.682 45.4758 113.857C45.1793 113.025 44.8498 112.206 44.5862 111.368C44.3292 110.523 44.0327 109.691 43.7954 108.84C43.578 107.989 43.3276 107.138 43.1365 106.274C42.3523 102.831 41.858 99.3118 41.746 95.7603C41.5219 88.6766 42.6752 81.4649 45.3704 74.7714C48.0327 68.0652 52.1645 61.8965 57.3507 56.7197C62.5369 51.5365 68.8104 47.3515 75.6902 44.5103C82.5699 41.6371 90.0757 40.2037 97.5552 40.2293C105.035 40.2741 112.514 41.7779 119.341 44.6831C120.198 45.035 121.028 45.4574 121.865 45.8413C122.695 46.2445 123.506 46.6988 124.323 47.1211C125.127 47.5691 125.905 48.0682 126.695 48.5353C127.473 49.028 128.224 49.5528 128.989 50.0583C132.007 52.1508 134.748 54.5824 137.232 57.2124C142.181 62.5045 145.938 68.7115 148.448 75.2706C150.946 81.8616 152.198 88.811 152.185 95.7539ZM151.658 95.7539C151.638 88.875 150.096 82.0024 147.124 75.8145C144.191 69.6074 139.875 64.1106 134.761 59.6249C132.211 57.3724 129.424 55.3951 126.524 53.6482C125.786 53.2322 125.061 52.7971 124.31 52.4003C123.552 52.0228 122.807 51.6197 122.043 51.2613C121.272 50.9158 120.514 50.5382 119.737 50.2119C118.952 49.8983 118.175 49.5656 117.384 49.2712C111.064 46.8716 104.31 45.6621 97.5552 45.7005C90.8006 45.7261 84.0724 47.0123 77.8055 49.444C71.5386 51.8884 65.7593 55.5423 60.8762 60.1368C51.1299 69.3386 45.1002 82.2647 44.6323 95.7539C44.4083 102.479 45.5417 109.314 48.1513 115.623C50.7345 121.939 54.695 127.749 59.7164 132.497C62.2337 134.859 65.0081 136.964 67.9537 138.775C70.9191 140.56 74.0493 142.07 77.3047 143.229C83.8154 145.558 90.7215 146.582 97.5552 146.415C111.236 146.102 124.56 140.944 134.807 131.928C139.915 127.423 144.231 121.92 147.163 115.706C150.135 109.518 151.671 102.633 151.658 95.7539Z" fill="#FFFBF5"/>
<g clip-path="url(#clip4_2507_6997)">
<path d="M44.3169 87.6244C40.5442 89.3975 36.6976 90.5204 32.8412 90.8258C32.3585 90.8652 31.8808 90.9046 31.3981 90.9046L30.679 90.9292L29.96 90.9144C29.7235 90.9095 29.4773 90.9095 29.2507 90.8947C29.0291 90.8701 28.8075 90.8553 28.5908 90.8356C28.3691 90.8258 28.1524 90.7864 27.9406 90.747C27.7239 90.7026 27.5072 90.6879 27.2954 90.6288C25.5913 90.2495 24.0152 89.4516 22.1732 88.4617C21.2473 87.9889 20.2425 87.4914 19.1393 87.0974C18.0262 86.7132 16.8048 86.467 15.5932 86.4276C13.1897 86.3389 10.865 86.9595 8.87027 87.9987C6.87065 89.0379 5.15668 90.4268 3.6939 91.9832C2.96989 92.7712 2.29022 93.579 1.67949 94.4409C1.38398 94.8792 1.07369 95.3028 0.792957 95.7411C0.526996 96.1942 0.251185 96.6375 4.66678e-07 97.0955L2.4626 95.2043C3.29003 94.5985 4.10761 94.0124 4.9449 93.4657C6.61454 92.3772 8.34328 91.4513 10.1016 90.8455C11.8549 90.2446 13.6576 89.9737 15.3518 90.1609C17.0215 90.3086 18.5631 91.0179 20.3558 91.9684C21.2522 92.4215 22.2077 92.9338 23.2666 93.3622C24.3206 93.776 25.4485 94.1404 26.6256 94.3079C26.9162 94.3621 27.2117 94.3719 27.5072 94.4064C27.8027 94.4359 28.0933 94.4655 28.3839 94.4556L29.2606 94.4507C29.5462 94.4409 29.8122 94.4064 30.088 94.3867L30.9056 94.3128L31.7183 94.1946C32.26 94.1207 32.7969 94.0025 33.3288 93.8843C37.5743 92.9042 41.4997 90.7322 44.3169 87.6244Z" fill="#FFFBF5"/>
<path d="M44.3169 106.552C41.4997 103.445 37.5743 101.273 33.3288 100.302C32.7969 100.189 32.26 100.066 31.7183 99.992L30.9056 99.8738L30.088 99.7999C29.8122 99.7802 29.5462 99.7457 29.2606 99.7359L28.3839 99.731C28.0933 99.7211 27.7978 99.7507 27.5072 99.7802C27.2166 99.8147 26.9162 99.8196 26.6256 99.8787C25.4534 100.046 24.3255 100.416 23.2666 100.824C22.2077 101.248 21.2571 101.765 20.3558 102.218C18.5631 103.169 17.0215 103.873 15.3518 104.026C13.6576 104.213 11.8549 103.947 10.1016 103.341C8.34328 102.735 6.61454 101.809 4.94489 100.721C4.10761 100.174 3.29003 99.5832 2.4626 98.9823L0 97.0911C0.251185 97.5491 0.526996 97.9924 0.792956 98.4455C1.07369 98.8888 1.38398 99.3074 1.67949 99.7457C2.29022 100.603 2.96989 101.415 3.6939 102.203C5.15668 103.755 6.86572 105.144 8.87027 106.188C10.8699 107.227 13.1897 107.848 15.5932 107.759C16.7998 107.715 18.0262 107.473 19.1344 107.084C20.2425 106.69 21.2424 106.193 22.1683 105.72C24.0103 104.73 25.5864 103.927 27.2905 103.553C27.5023 103.494 27.719 103.474 27.9357 103.435C28.1524 103.395 28.3642 103.356 28.5858 103.346C28.8075 103.331 29.0242 103.312 29.2458 103.287C29.4724 103.272 29.7186 103.277 29.955 103.267L30.6741 103.252L31.3932 103.277C31.8759 103.277 32.3536 103.317 32.8363 103.356C36.6927 103.656 40.5393 104.779 44.3169 106.552Z" fill="#FFFBF5"/>
</g>
<g clip-path="url(#clip5_2507_6997)">
<path d="M89.1144 149.037C90.8875 152.81 92.0104 156.656 92.3158 160.513C92.3552 160.995 92.3946 161.473 92.3946 161.956L92.4192 162.675L92.4044 163.394C92.3995 163.63 92.3995 163.876 92.3847 164.103C92.3601 164.325 92.3453 164.546 92.3256 164.763C92.3158 164.985 92.2764 165.201 92.237 165.413C92.1926 165.63 92.1779 165.847 92.1188 166.058C91.7395 167.762 90.9416 169.339 89.9517 171.181C89.4789 172.106 88.9814 173.111 88.5874 174.214C88.2032 175.328 87.957 176.549 87.9176 177.761C87.8289 180.164 88.4495 182.489 89.4887 184.483C90.5279 186.483 91.9168 188.197 93.4732 189.66C94.2612 190.384 95.0689 191.064 95.9309 191.674C96.3692 191.97 96.7928 192.28 97.2311 192.561C97.6842 192.827 98.1275 193.103 98.5855 193.354L96.6943 190.891C96.0885 190.064 95.5024 189.246 94.9557 188.409C93.8672 186.739 92.9413 185.01 92.3355 183.252C91.7346 181.499 91.4637 179.696 91.6509 178.002C91.7986 176.332 92.5078 174.791 93.4584 172.998C93.9115 172.102 94.4237 171.146 94.8522 170.087C95.266 169.033 95.6304 167.905 95.7979 166.728C95.8521 166.438 95.8619 166.142 95.8964 165.847C95.9259 165.551 95.9555 165.26 95.9456 164.97L95.9407 164.093C95.9309 163.808 95.8964 163.542 95.8767 163.266L95.8028 162.448L95.6846 161.636C95.6107 161.094 95.4925 160.557 95.3743 160.025C94.3942 155.779 92.2222 151.854 89.1144 149.037Z" fill="#FFFBF5"/>
<path d="M108.042 149.037C104.935 151.854 102.763 155.779 101.792 160.025C101.679 160.557 101.556 161.094 101.482 161.636L101.364 162.448L101.29 163.266C101.27 163.542 101.236 163.808 101.226 164.093L101.221 164.97C101.211 165.26 101.241 165.556 101.27 165.847C101.305 166.137 101.31 166.438 101.369 166.728C101.536 167.9 101.906 169.028 102.314 170.087C102.738 171.146 103.255 172.097 103.708 172.998C104.659 174.791 105.363 176.332 105.516 178.002C105.703 179.696 105.437 181.499 104.831 183.252C104.225 185.01 103.299 186.739 102.211 188.409C101.664 189.246 101.073 190.064 100.472 190.891L98.5811 193.354C99.0391 193.103 99.4824 192.827 99.9355 192.561C100.379 192.28 100.797 191.97 101.236 191.674C102.093 191.064 102.905 190.384 103.693 189.66C105.245 188.197 106.634 186.488 107.678 184.483C108.717 182.484 109.338 180.164 109.249 177.761C109.205 176.554 108.963 175.328 108.574 174.219C108.18 173.111 107.683 172.111 107.21 171.185C106.22 169.343 105.417 167.767 105.043 166.063C104.984 165.851 104.964 165.635 104.925 165.418C104.885 165.201 104.846 164.99 104.836 164.768C104.821 164.546 104.802 164.33 104.777 164.108C104.762 163.881 104.767 163.635 104.757 163.399L104.742 162.68L104.767 161.961C104.767 161.478 104.807 161 104.846 160.517C105.146 156.661 106.269 152.814 108.042 149.037Z" fill="#FFFBF5"/>
</g>
<g clip-path="url(#clip6_2507_6997)">
<path d="M51.0747 122.741C49.6608 126.662 47.7349 130.176 45.2239 133.119C44.9105 133.488 44.6005 133.854 44.2592 134.195L43.7682 134.721L43.2492 135.219C43.0786 135.383 42.9045 135.557 42.7338 135.707C42.5597 135.846 42.3925 135.992 42.2253 136.132C42.0617 136.282 41.8806 136.407 41.703 136.529C41.5184 136.651 41.3547 136.793 41.1631 136.901C39.69 137.838 38.0114 138.389 36.0088 138.991C35.0198 139.311 33.9576 139.67 32.8988 140.172C31.8401 140.687 30.8023 141.377 29.9177 142.205C28.1555 143.842 26.9505 145.925 26.2749 148.07C25.5957 150.219 25.3659 152.413 25.4321 154.548C25.4773 155.617 25.5679 156.669 25.7455 157.71C25.8465 158.229 25.9266 158.748 26.038 159.256C26.1704 159.765 26.2888 160.273 26.4351 160.775L26.8391 157.696C26.9958 156.683 27.1595 155.69 27.3649 154.712C27.7759 152.761 28.3436 150.884 29.1585 149.213C29.9734 147.548 31.0565 146.082 32.3869 145.016C33.672 143.94 35.2636 143.351 37.2034 142.756C38.1576 142.442 39.1955 142.129 40.2472 141.683C41.285 141.23 42.3403 140.691 43.291 139.977C43.5348 139.809 43.7507 139.607 43.9841 139.423C44.2139 139.235 44.4403 139.05 44.6388 138.838L45.2552 138.214C45.4503 138.005 45.614 137.793 45.7951 137.584L46.3209 136.954L46.812 136.295C47.1428 135.86 47.4389 135.397 47.7314 134.937C50.0404 131.242 51.2802 126.931 51.0747 122.741Z" fill="#FFFBF5"/>
<path d="M64.4586 136.125C60.269 135.92 55.9574 137.159 52.2693 139.475C51.8131 139.771 51.3464 140.064 50.9111 140.395L50.2529 140.886L49.6225 141.412C49.4136 141.593 49.2011 141.757 48.9922 141.952L48.3688 142.568C48.1563 142.766 47.9683 142.996 47.7837 143.223C47.6026 143.453 47.3936 143.668 47.23 143.916C46.5195 144.863 45.9832 145.922 45.5235 146.96C45.0742 148.008 44.7677 149.046 44.4508 150.003C43.8553 151.943 43.2632 153.531 42.1906 154.82C41.1249 156.15 39.6622 157.237 37.994 158.048C36.3223 158.863 34.4452 159.431 32.4949 159.842C31.5163 160.047 30.5203 160.208 29.5103 160.368L26.4316 160.772C26.9331 160.918 27.4416 161.036 27.9501 161.169C28.462 161.284 28.9774 161.36 29.4964 161.461C30.5342 161.635 31.5894 161.729 32.6586 161.775C34.79 161.837 36.9806 161.611 39.1363 160.932C41.2851 160.253 43.3642 159.051 45.0011 157.289C45.823 156.405 46.5195 155.367 47.028 154.308C47.5329 153.246 47.8882 152.187 48.2086 151.198C48.8111 149.195 49.3578 147.513 50.2982 146.044C50.4061 145.852 50.5454 145.685 50.6708 145.504C50.7962 145.323 50.9181 145.145 51.0678 144.981C51.2141 144.814 51.3534 144.647 51.4927 144.473C51.6425 144.302 51.8201 144.132 51.9803 143.958L52.4783 143.439L53.0042 142.948C53.3455 142.606 53.7111 142.296 54.0803 141.983C57.0197 139.468 60.5336 137.543 64.4586 136.125Z" fill="#FFFBF5"/>
</g>
<g clip-path="url(#clip7_2507_6997)">
<path d="M131.965 138.865C135.996 139.93 139.665 141.541 142.816 143.784C143.212 144.064 143.603 144.341 143.973 144.651L144.54 145.094L145.081 145.567C145.259 145.723 145.448 145.881 145.612 146.038C145.766 146.199 145.927 146.353 146.08 146.507C146.244 146.657 146.384 146.827 146.521 146.993C146.659 147.166 146.816 147.317 146.94 147.498C148.002 148.883 148.697 150.507 149.473 152.449C149.879 153.407 150.329 154.433 150.922 155.444C151.528 156.453 152.306 157.427 153.209 158.235C154.994 159.847 157.174 160.865 159.37 161.35C161.57 161.839 163.776 161.875 165.897 161.622C166.958 161.483 167.998 161.301 169.02 161.033C169.528 160.887 170.038 160.762 170.534 160.606C171.029 160.43 171.525 160.267 172.012 160.077L168.91 159.945C167.887 159.878 166.884 159.801 165.891 159.682C163.912 159.444 161.992 159.043 160.256 158.378C158.526 157.712 156.97 156.761 155.792 155.529C154.608 154.344 153.882 152.81 153.119 150.93C152.723 150.006 152.32 149 151.783 147.991C151.241 146.997 150.611 145.993 149.817 145.109C149.629 144.881 149.409 144.683 149.204 144.467C148.997 144.254 148.793 144.045 148.564 143.866L147.889 143.307C147.664 143.131 147.438 142.986 147.214 142.824L146.54 142.355L145.841 141.924C145.379 141.633 144.891 141.378 144.408 141.127C140.525 139.151 136.121 138.294 131.965 138.865Z" fill="#FFFBF5"/>
<path d="M144.125 124.36C144.287 128.551 145.9 132.738 148.53 136.209C148.865 136.637 149.198 137.076 149.565 137.481L150.112 138.094L150.691 138.676C150.89 138.868 151.072 139.065 151.284 139.256L151.953 139.823C152.169 140.017 152.415 140.185 152.656 140.349C152.901 140.509 153.135 140.698 153.395 140.839C154.401 141.464 155.503 141.906 156.577 142.273C157.66 142.628 158.721 142.843 159.703 143.075C161.688 143.498 163.321 143.948 164.699 144.904C166.118 145.849 167.328 147.211 168.283 148.802C169.241 150.395 169.971 152.216 170.551 154.122C170.842 155.079 171.089 156.057 171.337 157.049L172.009 160.081C172.111 159.568 172.184 159.052 172.271 158.533C172.341 158.013 172.372 157.493 172.427 156.967C172.51 155.918 172.511 154.859 172.462 153.79C172.338 151.661 171.921 149.499 171.055 147.411C170.19 145.33 168.811 143.364 166.912 141.888C165.959 141.147 164.864 140.544 163.765 140.13C162.663 139.72 161.577 139.459 160.564 139.227C158.516 138.802 156.792 138.405 155.246 137.597C155.046 137.506 154.867 137.382 154.676 137.273C154.484 137.164 154.297 137.058 154.121 136.923C153.941 136.792 153.762 136.668 153.577 136.544C153.394 136.41 153.208 136.248 153.021 136.104L152.46 135.653L151.925 135.172C151.555 134.862 151.214 134.525 150.87 134.185C148.107 131.477 145.881 128.145 144.125 124.36Z" fill="#FFFBF5"/>
</g>
<path d="M74.2835 99.9801C74.2835 99.9801 59.1139 101.757 61.3053 113.985C63.4968 126.212 82.5879 138.284 96.8481 137.822C111.108 137.36 134.14 127.42 138.567 106.726C138.567 106.726 138.567 103.967 122.135 110.892C108.482 117.27 102.135 103.86 115.719 99.9801C115.719 99.9801 106.208 97.6799 86.4407 110.964C86.4407 110.964 72.711 118.029 69.0859 110.7C65.4609 103.37 74.2835 99.9801 74.2835 99.9801Z" fill="#FFFBF5" stroke="#FFFBF5" stroke-width="0.5" stroke-miterlimit="10"/>
<defs>
<clipPath id="clip0_2507_6997">
<rect width="21.3409" height="44.3169" fill="white" transform="translate(87.9082)"/>
</clipPath>
<clipPath id="clip1_2507_6997">
<rect width="21.3409" height="44.3169" fill="white" transform="translate(194.804 86.4182) rotate(90)"/>
</clipPath>
<clipPath id="clip2_2507_6997">
<rect width="21.3409" height="44.3169" fill="white" transform="translate(17.8799 40.4197) rotate(-45)"/>
</clipPath>
<clipPath id="clip3_2507_6997">
<rect width="21.3409" height="44.3169" fill="white" transform="translate(166.643 26.585) rotate(50.027)"/>
</clipPath>
<clipPath id="clip4_2507_6997">
<rect width="21.3409" height="44.3169" fill="white" transform="matrix(4.37114e-08 1 1 -4.37114e-08 0 86.4182)"/>
</clipPath>
<clipPath id="clip5_2507_6997">
<rect width="21.3409" height="44.3169" fill="white" transform="matrix(1 0 0 -1 87.9082 193.354)"/>
</clipPath>
<clipPath id="clip6_2507_6997">
<rect width="21.3409" height="44.3169" fill="white" transform="matrix(0.707107 0.707107 0.707107 -0.707107 18.8848 153.225)"/>
</clipPath>
<clipPath id="clip7_2507_6997">
<rect width="21.3409" height="44.3169" fill="white" transform="matrix(0.642427 -0.766347 -0.766347 -0.642427 165.152 168.26)"/>
</clipPath>
</defs>
</svg>
