<svg width="450" height="446" viewBox="0 0 450 446" fill="none" xmlns="http://www.w3.org/2000/svg">
<g clip-path="url(#clip0_2286_2005)">
<path d="M205.554 102.224C209.644 93.5214 212.235 84.6487 212.939 75.7532C213.03 74.6399 213.121 73.5379 213.121 72.4245L213.177 70.7659L213.143 69.1072C213.132 68.5619 213.132 67.9939 213.098 67.4713C213.041 66.96 213.007 66.4488 212.962 65.9489C212.939 65.4377 212.848 64.9378 212.757 64.4493C212.655 63.9494 212.621 63.4496 212.484 62.9611C211.61 59.0303 209.769 55.3948 207.486 51.1459C206.395 49.0101 205.248 46.6925 204.339 44.1477C203.453 41.5802 202.885 38.7627 202.794 35.968C202.589 30.424 204.021 25.0617 206.418 20.4606C208.815 15.8482 212.019 11.8947 215.609 8.52053C217.426 6.85051 219.29 5.28273 221.278 3.874C222.289 3.19236 223.266 2.47663 224.277 1.82907C225.322 1.2156 226.345 0.579396 227.401 0L223.039 5.68036C221.641 7.58895 220.289 9.47483 219.028 11.4062C216.517 15.2574 214.382 19.245 212.984 23.3008C211.598 27.3452 210.973 31.5033 211.405 35.4113C211.746 39.2626 213.382 42.8185 215.575 46.9538C216.62 49.0215 217.801 51.2254 218.79 53.668C219.744 56.0992 220.585 58.7008 220.971 61.416C221.096 62.0863 221.119 62.7679 221.198 63.4496C221.266 64.1312 221.334 64.8015 221.312 65.4718L221.3 67.494C221.278 68.1529 221.198 68.7664 221.153 69.4026L220.982 71.2885L220.71 73.163C220.539 74.4127 220.267 75.651 219.994 76.8779C217.733 86.6709 212.723 95.7254 205.554 102.224Z" fill="#FFFBF5"/>
<path d="M249.215 102.224C242.046 95.7254 237.036 86.6709 234.798 76.8779C234.537 75.651 234.252 74.4127 234.082 73.163L233.809 71.2885L233.639 69.4026C233.594 68.7664 233.514 68.1529 233.491 67.494L233.48 65.4718C233.457 64.8015 233.525 64.1199 233.594 63.4496C233.673 62.7793 233.684 62.0863 233.821 61.416C234.207 58.7122 235.059 56.1106 236.002 53.668C236.979 51.2254 238.172 49.0328 239.217 46.9538C241.41 42.8185 243.034 39.2626 243.387 35.4113C243.818 31.5033 243.205 27.3452 241.807 23.3008C240.41 19.245 238.274 15.2574 235.763 11.4062C234.502 9.47483 233.139 7.58895 231.753 5.68036L227.391 0C228.447 0.579396 229.47 1.2156 230.515 1.82907C231.537 2.47663 232.503 3.19236 233.514 3.874C235.491 5.28273 237.365 6.85051 239.183 8.52053C242.762 11.8947 245.965 15.8368 248.374 20.4606C250.771 25.0731 252.202 30.424 251.998 35.968C251.896 38.7514 251.339 41.5802 250.442 44.1364C249.533 46.6925 248.385 48.9987 247.295 51.1346C245.011 55.3835 243.159 59.0189 242.296 62.9497C242.16 63.4382 242.114 63.9381 242.023 64.438C241.932 64.9378 241.841 65.4263 241.819 65.9376C241.785 66.4488 241.739 66.9487 241.682 67.4599C241.648 67.9825 241.66 68.5505 241.637 69.0958L241.603 70.7545L241.66 72.4132C241.66 73.5265 241.751 74.6285 241.841 75.7419C242.534 84.6373 245.125 93.51 249.215 102.224Z" fill="#FFFBF5"/>
</g>
<g clip-path="url(#clip1_2286_2005)">
<path d="M347.122 202.119C355.824 206.209 364.697 208.799 373.592 209.503C374.706 209.594 375.808 209.685 376.921 209.685L378.58 209.742L380.238 209.708C380.784 209.696 381.352 209.696 381.874 209.662C382.386 209.606 382.897 209.571 383.397 209.526C383.908 209.503 384.408 209.412 384.896 209.322C385.396 209.219 385.896 209.185 386.385 209.049C390.315 208.174 393.951 206.334 398.2 204.05C400.336 202.96 402.653 201.812 405.198 200.903C407.766 200.017 410.583 199.449 413.378 199.358C418.922 199.154 424.284 200.585 428.885 202.982C433.498 205.379 437.451 208.583 440.825 212.173C442.495 213.991 444.063 215.854 445.472 217.842C446.153 218.853 446.869 219.83 447.517 220.841C448.13 221.886 448.766 222.909 449.346 223.966L443.665 219.603C441.757 218.206 439.871 216.854 437.94 215.593C434.088 213.082 430.101 210.946 426.045 209.549C422 208.163 417.842 207.538 413.934 207.97C410.083 208.31 406.527 209.946 402.392 212.139C400.324 213.184 398.12 214.366 395.678 215.354C393.247 216.308 390.645 217.149 387.93 217.535C387.259 217.66 386.578 217.683 385.896 217.763C385.214 217.831 384.544 217.899 383.874 217.876L381.852 217.865C381.193 217.842 380.579 217.763 379.943 217.717L378.057 217.547L376.183 217.274C374.933 217.104 373.695 216.831 372.468 216.558C362.675 214.298 353.62 209.287 347.122 202.119Z" fill="#FFFBF5"/>
<path d="M347.122 245.779C353.62 238.61 362.675 233.6 372.468 231.362C373.695 231.101 374.933 230.817 376.183 230.647L378.057 230.374L379.943 230.203C380.579 230.158 381.193 230.078 381.852 230.056L383.874 230.044C384.544 230.022 385.226 230.09 385.896 230.158C386.566 230.238 387.259 230.249 387.93 230.385C390.634 230.772 393.235 231.624 395.678 232.566C398.12 233.544 400.313 234.736 402.392 235.782C406.527 237.974 410.083 239.599 413.934 239.951C417.842 240.383 422 239.769 426.045 238.372C430.101 236.974 434.088 234.839 437.94 232.328C439.871 231.067 441.757 229.704 443.665 228.318L449.346 223.955C448.766 225.012 448.13 226.034 447.517 227.079C446.869 228.102 446.153 229.067 445.472 230.079C444.063 232.055 442.495 233.93 440.825 235.747C437.451 239.326 433.509 242.53 428.885 244.938C424.273 247.335 418.922 248.767 413.378 248.562C410.594 248.46 407.766 247.903 405.209 247.006C402.653 246.097 400.347 244.95 398.211 243.859C393.962 241.576 390.327 239.724 386.396 238.86C385.907 238.724 385.408 238.679 384.908 238.588C384.408 238.497 383.919 238.406 383.408 238.383C382.897 238.349 382.397 238.304 381.886 238.247C381.363 238.213 380.795 238.224 380.25 238.201L378.591 238.167L376.933 238.224C375.819 238.224 374.717 238.315 373.604 238.406C364.708 239.099 355.836 241.689 347.122 245.779Z" fill="#FFFBF5"/>
</g>
<g clip-path="url(#clip2_2286_2005)">
<path d="M115.491 163.55C112.23 154.505 107.787 146.399 101.995 139.611C101.272 138.76 100.557 137.916 99.7699 137.129L98.6373 135.916L97.4403 134.767C97.0467 134.39 96.645 133.988 96.2514 133.642C95.8497 133.321 95.4641 132.984 95.0785 132.662C94.701 132.317 94.2832 132.028 93.8736 131.747C93.4478 131.465 93.0702 131.136 92.6284 130.887C89.2303 128.726 85.3583 127.457 80.7392 126.067C78.4578 125.328 76.0076 124.501 73.5655 123.344C71.1234 122.155 68.7295 120.564 66.6891 118.652C62.6243 114.877 59.8448 110.073 58.2863 105.124C56.7198 100.168 56.1896 95.107 56.3423 90.1827C56.4467 87.7165 56.6556 85.2904 57.0653 82.8885C57.2982 81.6915 57.483 80.4946 57.7401 79.3217C58.0453 78.1489 58.3185 76.976 58.6559 75.8192L59.5877 82.9206C59.9492 85.2583 60.3268 87.5478 60.8007 89.8051C61.7486 94.3037 63.0581 98.6336 64.9378 102.49C66.8176 106.329 69.316 109.711 72.3846 112.17C75.3489 114.652 79.0201 116.01 83.4946 117.383C85.6957 118.106 88.0896 118.829 90.5157 119.857C92.9096 120.902 95.3436 122.147 97.5367 123.794C98.099 124.179 98.5971 124.645 99.1353 125.071C99.6655 125.505 100.188 125.931 100.646 126.421L102.067 127.859C102.517 128.341 102.895 128.831 103.313 129.313L104.526 130.767L105.658 132.285C106.421 133.289 107.104 134.357 107.779 135.418C113.105 143.941 115.965 153.886 115.491 163.55Z" fill="#FFFBF5"/>
<path d="M146.363 132.678C136.699 133.152 126.754 130.292 118.247 124.95C117.195 124.267 116.118 123.592 115.114 122.829L113.596 121.696L112.142 120.483C111.66 120.066 111.17 119.688 110.688 119.238L109.25 117.816C108.76 117.358 108.326 116.828 107.9 116.306C107.482 115.776 107 115.278 106.623 114.707C104.984 112.522 103.747 110.08 102.687 107.686C101.65 105.268 100.943 102.874 100.212 100.665C98.8387 96.1908 97.4731 92.5276 94.9988 89.5553C92.5407 86.4866 89.1667 83.9803 85.3188 82.1085C81.4628 80.2288 77.1329 78.9193 72.6343 77.9714C70.377 77.4974 68.0795 77.1279 65.7498 76.7584L58.6484 75.8265C59.8052 75.4891 60.9781 75.216 62.1509 74.9107C63.3318 74.6457 64.5207 74.4689 65.7177 74.236C68.1116 73.8343 70.5457 73.6174 73.0119 73.513C77.9282 73.3684 82.9811 73.8905 87.9537 75.457C92.9102 77.0235 97.706 79.795 101.482 83.8598C103.377 85.9002 104.984 88.2941 106.157 90.7362C107.322 93.1864 108.141 95.6285 108.88 97.9099C110.27 102.529 111.531 106.409 113.7 109.799C113.949 110.241 114.271 110.627 114.56 111.044C114.849 111.462 115.13 111.872 115.476 112.249C115.813 112.635 116.134 113.02 116.456 113.422C116.801 113.816 117.211 114.209 117.58 114.611L118.729 115.808L119.942 116.941C120.729 117.728 121.573 118.443 122.424 119.166C129.204 124.966 137.31 129.408 146.363 132.678Z" fill="#FFFBF5"/>
</g>
<g clip-path="url(#clip3_2286_2005)">
<path d="M307.838 129.126C317.134 126.67 325.598 122.955 332.867 117.78C333.779 117.134 334.682 116.496 335.535 115.781L336.843 114.759L338.092 113.667C338.502 113.308 338.938 112.943 339.316 112.581C339.672 112.209 340.041 111.855 340.395 111.499C340.773 111.153 341.097 110.762 341.413 110.379C341.731 109.979 342.092 109.632 342.379 109.214C344.829 106.018 346.433 102.272 348.222 97.7925C349.158 95.5846 350.197 93.2164 351.563 90.885C352.961 88.5565 354.756 86.3112 356.839 84.4461C360.956 80.7278 365.985 78.3799 371.051 77.261C376.126 76.1349 381.214 76.0502 386.106 76.6337C388.554 76.9539 390.952 77.3745 393.309 77.9931C394.481 78.3301 395.657 78.619 396.803 78.9778C397.944 79.3847 399.089 79.7596 400.211 80.197L393.056 80.503C390.695 80.6583 388.382 80.8338 386.091 81.1081C381.527 81.6582 377.099 82.5832 373.093 84.1179C369.103 85.6539 365.515 87.8463 362.798 90.6878C360.065 93.4232 358.391 96.9613 356.631 101.298C355.718 103.427 354.788 105.749 353.551 108.075C352.301 110.369 350.847 112.684 349.015 114.725C348.581 115.251 348.073 115.706 347.602 116.205C347.124 116.695 346.654 117.178 346.125 117.591L344.568 118.882C344.049 119.288 343.528 119.621 343.011 119.995L341.456 121.076L339.844 122.071C338.777 122.743 337.653 123.33 336.538 123.909C327.581 128.468 317.423 130.445 307.838 129.126Z" fill="#FFFBF5"/>
<path d="M335.886 162.585C336.26 152.917 339.981 143.26 346.047 135.254C346.82 134.265 347.586 133.252 348.435 132.319L349.696 130.906L351.032 129.563C351.49 129.12 351.909 128.665 352.4 128.224L353.942 126.916C354.441 126.468 355.007 126.083 355.565 125.704C356.129 125.335 356.668 124.898 357.269 124.572C359.589 123.131 362.13 122.113 364.608 121.266C367.107 120.446 369.554 119.951 371.819 119.417C376.397 118.44 380.165 117.401 383.343 115.197C386.615 113.017 389.408 109.875 391.609 106.206C393.82 102.53 395.504 98.3313 396.842 93.9331C397.512 91.726 398.081 89.4697 398.654 87.1814L400.204 80.189C400.439 81.3709 400.608 82.5631 400.809 83.7582C400.97 84.9578 401.042 86.1576 401.169 87.3704C401.359 89.7903 401.362 92.234 401.25 94.6999C400.963 99.61 400.001 104.598 398.004 109.414C396.01 114.214 392.829 118.749 388.449 122.154C386.25 123.863 383.724 125.254 381.189 126.208C378.646 127.154 376.142 127.756 373.804 128.293C369.081 129.272 365.105 130.189 361.538 132.052C361.076 132.261 360.664 132.548 360.223 132.799C359.781 133.051 359.348 133.295 358.942 133.606C358.528 133.908 358.116 134.195 357.688 134.479C357.265 134.789 356.837 135.163 356.405 135.496L355.112 136.535L353.877 137.644C353.024 138.359 352.238 139.137 351.443 139.922C345.071 146.168 339.936 153.853 335.886 162.585Z" fill="#FFFBF5"/>
</g>
<path d="M323.063 225.631C323.039 237.943 320.795 250.256 316.378 261.91C311.914 273.531 305.264 284.538 296.464 293.878C287.676 303.206 276.808 310.854 264.666 315.859C252.559 320.909 239.295 323.315 226.183 323.042C219.627 322.895 213.094 322.066 206.725 320.625C200.368 319.161 194.186 317.096 188.296 314.463C182.406 311.819 176.785 308.687 171.549 305.033C166.29 301.424 161.394 297.35 156.941 292.879C148.001 283.96 140.709 273.508 135.626 262.069C135.03 260.628 134.363 259.198 133.826 257.734C133.3 256.259 132.716 254.807 132.248 253.32C131.792 251.822 131.267 250.347 130.846 248.837C130.46 247.328 130.016 245.819 129.677 244.287C128.287 238.182 127.41 231.94 127.211 225.642C126.814 213.08 128.859 200.291 133.639 188.421C138.36 176.528 145.687 165.588 154.885 156.408C164.082 147.216 175.207 139.794 187.408 134.756C199.608 129.66 212.919 127.119 226.183 127.164C239.447 127.243 252.711 129.91 264.818 135.062C266.337 135.686 267.81 136.435 269.294 137.116C270.766 137.831 272.204 138.637 273.653 139.386C275.078 140.18 276.457 141.065 277.86 141.894C279.239 142.767 280.571 143.698 281.927 144.594C287.279 148.305 292.14 152.618 296.546 157.282C305.323 166.666 311.984 177.674 316.436 189.306C320.865 200.994 323.086 213.318 323.063 225.631ZM322.128 225.631C322.093 213.432 319.358 201.244 314.087 190.27C308.887 179.263 301.232 169.515 292.164 161.56C287.641 157.565 282.698 154.059 277.556 150.961C276.247 150.223 274.962 149.451 273.629 148.748C272.285 148.078 270.965 147.363 269.609 146.728C268.242 146.115 266.898 145.446 265.519 144.867C264.128 144.311 262.749 143.721 261.347 143.199C250.14 138.943 238.161 136.798 226.183 136.866C214.204 136.912 202.273 139.193 191.159 143.505C180.045 147.84 169.796 154.32 161.137 162.468C143.853 178.786 133.16 201.709 132.33 225.631C131.933 237.558 133.943 249.677 138.571 260.866C143.152 272.067 150.175 282.371 159.08 290.791C163.544 294.979 168.464 298.712 173.688 301.923C178.947 305.09 184.498 307.768 190.271 309.822C201.817 313.952 214.064 315.768 226.183 315.473C250.444 314.917 274.073 305.77 292.246 289.781C301.303 281.792 308.957 272.033 314.158 261.014C319.428 250.04 322.151 237.83 322.128 225.631Z" fill="#FFFBF5"/>
<path d="M351.038 220.872C351.008 236.887 348.089 252.902 342.344 268.061C336.537 283.176 327.888 297.493 316.442 309.641C305.011 321.774 290.875 331.722 275.082 338.232C259.334 344.8 242.082 347.929 225.027 347.575C216.499 347.383 208.002 346.306 199.718 344.431C191.449 342.527 183.408 339.841 175.747 336.416C168.086 332.977 160.774 328.903 153.965 324.15C147.125 319.457 140.756 314.158 134.964 308.342C123.336 296.74 113.851 283.146 107.239 268.268C106.463 266.393 105.597 264.533 104.898 262.629C104.214 260.71 103.454 258.821 102.846 256.887C102.253 254.939 101.569 253.02 101.022 251.057C100.52 249.094 99.9424 247.131 99.5016 245.138C97.6927 237.197 96.5527 229.079 96.2943 220.887C95.7775 204.547 98.4376 187.912 104.655 172.473C110.796 157.004 120.326 142.775 132.289 130.833C144.252 118.878 158.722 109.224 174.592 102.671C190.461 96.0432 207.774 92.7369 225.027 92.7959C242.279 92.8993 259.532 96.368 275.279 103.069C277.255 103.881 279.171 104.855 281.101 105.741C283.016 106.671 284.886 107.719 286.771 108.693C288.625 109.726 290.419 110.877 292.243 111.955C294.037 113.091 295.769 114.302 297.533 115.468C304.494 120.295 310.818 125.904 316.548 131.97C327.964 144.177 336.628 158.494 342.42 173.624C348.18 188.827 351.069 204.857 351.038 220.872ZM349.822 220.872C349.777 205.004 346.22 189.152 339.364 174.878C332.6 160.561 322.644 147.882 310.848 137.535C304.966 132.339 298.536 127.778 291.848 123.748C290.145 122.789 288.473 121.785 286.74 120.87C284.992 119.999 283.275 119.069 281.511 118.243C279.733 117.446 277.985 116.575 276.191 115.822C274.382 115.099 272.589 114.331 270.765 113.652C256.188 108.117 240.607 105.328 225.027 105.416C209.446 105.475 193.927 108.442 179.471 114.051C165.015 119.689 151.685 128.118 140.421 138.716C117.94 159.941 104.031 189.757 102.952 220.872C102.435 236.385 105.05 252.149 111.069 266.703C117.028 281.271 126.163 294.674 137.746 305.626C143.552 311.073 149.952 315.929 156.746 320.106C163.587 324.224 170.807 327.708 178.316 330.379C193.334 335.752 209.264 338.114 225.027 337.73C256.583 337.007 287.318 325.11 310.955 304.312C322.735 293.921 332.691 281.227 339.455 266.895C346.311 252.621 349.853 236.739 349.822 220.872Z" fill="#FFFBF5"/>
<g clip-path="url(#clip4_2286_2005)">
<path d="M102.224 202.118C93.5214 206.208 84.6487 208.798 75.7532 209.502C74.6399 209.593 73.5379 209.684 72.4245 209.684L70.7659 209.741L69.1072 209.707C68.5619 209.696 67.9939 209.696 67.4713 209.662C66.96 209.605 66.4488 209.571 65.9489 209.525C65.4377 209.502 64.9378 209.412 64.4493 209.321C63.9494 209.218 63.4496 209.184 62.9611 209.048C59.0303 208.173 55.3948 206.333 51.1459 204.049C49.0101 202.959 46.6925 201.811 44.1477 200.902C41.5802 200.016 38.7627 199.448 35.968 199.357C30.424 199.153 25.0617 200.584 20.4606 202.981C15.8482 205.379 11.8947 208.582 8.52053 212.172C6.85051 213.99 5.28273 215.853 3.874 217.841C3.19236 218.852 2.47664 219.829 1.82908 220.84C1.2156 221.886 0.579397 222.908 1.07646e-06 223.965L5.68036 219.602C7.58896 218.205 9.47483 216.853 11.4062 215.592C15.2574 213.081 19.245 210.945 23.3008 209.548C27.3452 208.162 31.5033 207.537 35.4113 207.969C39.2626 208.31 42.8185 209.946 46.9538 212.138C49.0215 213.183 51.2254 214.365 53.668 215.353C56.0992 216.308 58.7008 217.148 61.416 217.534C62.0863 217.659 62.7679 217.682 63.4496 217.762C64.1312 217.83 64.8015 217.898 65.4718 217.875L67.494 217.864C68.1529 217.841 68.7664 217.762 69.4026 217.716L71.2885 217.546L73.163 217.273C74.4127 217.103 75.651 216.83 76.8779 216.557C86.6709 214.297 95.7254 209.287 102.224 202.118Z" fill="#FFFBF5"/>
<path d="M102.224 245.778C95.7254 238.61 86.6709 233.599 76.8779 231.361C75.651 231.1 74.4127 230.816 73.163 230.646L71.2885 230.373L69.4026 230.203C68.7664 230.157 68.1529 230.078 67.494 230.055L65.4718 230.044C64.8015 230.021 64.1199 230.089 63.4496 230.157C62.7793 230.237 62.0863 230.248 61.416 230.384C58.7122 230.771 56.1106 231.623 53.668 232.566C51.2254 233.543 49.0328 234.736 46.9538 235.781C42.8185 237.973 39.2626 239.598 35.4113 239.95C31.5033 240.382 27.3452 239.768 23.3008 238.371C19.245 236.974 15.2574 234.838 11.4062 232.327C9.47483 231.066 7.58896 229.703 5.68036 228.317L0 223.954C0.579396 225.011 1.2156 226.033 1.82907 227.078C2.47664 228.101 3.19236 229.067 3.874 230.078C5.28273 232.054 6.85051 233.929 8.52053 235.747C11.8947 239.325 15.8368 242.529 20.4606 244.937C25.0731 247.335 30.424 248.766 35.968 248.562C38.7514 248.459 41.5802 247.903 44.1364 247.005C46.6925 246.096 48.9987 244.949 51.1346 243.858C55.3835 241.575 59.0189 239.723 62.9497 238.859C63.4382 238.723 63.9381 238.678 64.438 238.587C64.9378 238.496 65.4263 238.405 65.9376 238.382C66.4488 238.348 66.9487 238.303 67.4599 238.246C67.9825 238.212 68.5505 238.223 69.0958 238.201L70.7545 238.166L72.4132 238.223C73.5265 238.223 74.6285 238.314 75.7419 238.405C84.6373 239.098 93.51 241.688 102.224 245.778Z" fill="#FFFBF5"/>
</g>
<g clip-path="url(#clip5_2286_2005)">
<path d="M205.554 343.776C209.644 352.479 212.235 361.351 212.939 370.247C213.03 371.36 213.121 372.462 213.121 373.575L213.177 375.234L213.143 376.893C213.132 377.438 213.132 378.006 213.098 378.529C213.041 379.04 213.007 379.551 212.962 380.051C212.939 380.562 212.848 381.062 212.757 381.551C212.655 382.051 212.621 382.55 212.484 383.039C211.61 386.97 209.769 390.605 207.486 394.854C206.395 396.99 205.248 399.307 204.339 401.852C203.453 404.42 202.885 407.237 202.794 410.032C202.589 415.576 204.021 420.938 206.418 425.539C208.815 430.152 212.019 434.105 215.609 437.479C217.426 439.149 219.29 440.717 221.278 442.126C222.289 442.808 223.266 443.523 224.277 444.171C225.322 444.784 226.345 445.421 227.401 446L223.039 440.32C221.641 438.411 220.289 436.525 219.028 434.594C216.517 430.743 214.382 426.755 212.984 422.699C211.598 418.655 210.973 414.497 211.405 410.589C211.746 406.737 213.382 403.181 215.575 399.046C216.62 396.979 217.801 394.775 218.79 392.332C219.744 389.901 220.585 387.299 220.971 384.584C221.096 383.914 221.119 383.232 221.198 382.55C221.266 381.869 221.334 381.199 221.312 380.528L221.3 378.506C221.278 377.847 221.198 377.234 221.153 376.597L220.982 374.712L220.71 372.837C220.539 371.587 220.267 370.349 219.994 369.122C217.733 359.329 212.723 350.275 205.554 343.776Z" fill="#FFFBF5"/>
<path d="M249.215 343.776C242.046 350.275 237.036 359.329 234.798 369.122C234.537 370.349 234.252 371.587 234.082 372.837L233.809 374.712L233.639 376.597C233.594 377.234 233.514 377.847 233.491 378.506L233.48 380.528C233.457 381.199 233.525 381.88 233.594 382.55C233.673 383.221 233.684 383.914 233.821 384.584C234.207 387.288 235.059 389.889 236.002 392.332C236.979 394.775 238.172 396.967 239.217 399.046C241.41 403.181 243.034 406.737 243.387 410.589C243.818 414.497 243.205 418.655 241.807 422.699C240.41 426.755 238.274 430.743 235.763 434.594C234.502 436.525 233.139 438.411 231.753 440.32L227.391 446C228.447 445.421 229.47 444.784 230.515 444.171C231.537 443.523 232.503 442.808 233.514 442.126C235.491 440.717 237.365 439.149 239.183 437.479C242.762 434.105 245.965 430.163 248.374 425.539C250.771 420.927 252.202 415.576 251.998 410.032C251.896 407.249 251.339 404.42 250.442 401.864C249.533 399.307 248.385 397.001 247.295 394.865C245.011 390.617 243.159 386.981 242.296 383.05C242.16 382.562 242.114 382.062 242.023 381.562C241.932 381.062 241.841 380.574 241.819 380.062C241.785 379.551 241.739 379.051 241.682 378.54C241.648 378.018 241.66 377.449 241.637 376.904L241.603 375.245L241.66 373.587C241.66 372.473 241.751 371.371 241.841 370.258C242.534 361.363 245.125 352.49 249.215 343.776Z" fill="#FFFBF5"/>
</g>
<g clip-path="url(#clip6_2286_2005)">
<path d="M117.81 283.12C114.549 292.165 110.106 300.271 104.314 307.059C103.592 307.911 102.877 308.754 102.089 309.541L100.957 310.754L99.7596 311.903C99.366 312.281 98.9644 312.682 98.5707 313.028C98.1691 313.349 97.7835 313.687 97.3979 314.008C97.0203 314.353 96.6026 314.642 96.1929 314.924C95.7671 315.205 95.3896 315.534 94.9477 315.783C91.5497 317.944 87.6777 319.213 83.0586 320.603C80.7771 321.342 78.327 322.17 75.8849 323.326C73.4428 324.515 71.0489 326.106 69.0084 328.018C64.9436 331.793 62.1641 336.597 60.6057 341.546C59.0392 346.502 58.509 351.563 58.6616 356.488C58.766 358.954 58.9749 361.38 59.3846 363.782C59.6176 364.979 59.8023 366.176 60.0594 367.349C60.3647 368.521 60.6378 369.694 60.9752 370.851L61.907 363.75C62.2685 361.412 62.6461 359.123 63.1201 356.865C64.068 352.367 65.3774 348.037 67.2572 344.181C69.137 340.341 71.6353 336.959 74.704 334.501C77.6682 332.018 81.3394 330.661 85.814 329.287C88.0151 328.564 90.409 327.841 92.835 326.813C95.2289 325.769 97.663 324.523 99.856 322.877C100.418 322.491 100.916 322.025 101.455 321.599C101.985 321.165 102.507 320.74 102.965 320.25L104.387 318.812C104.837 318.33 105.214 317.84 105.632 317.358L106.845 315.904L107.978 314.385C108.741 313.381 109.424 312.313 110.098 311.252C115.424 302.729 118.284 292.784 117.81 283.12Z" fill="#FFFBF5"/>
<path d="M148.683 313.993C139.019 313.519 129.074 316.378 120.566 321.721C119.514 322.403 118.438 323.078 117.433 323.841L115.915 324.974L114.461 326.187C113.979 326.605 113.489 326.982 113.007 327.432L111.569 328.854C111.079 329.312 110.645 329.842 110.22 330.364C109.802 330.894 109.32 331.393 108.942 331.963C107.303 334.148 106.066 336.59 105.006 338.984C103.97 341.402 103.263 343.796 102.532 346.005C101.158 350.479 99.7924 354.143 97.3182 357.115C94.86 360.184 91.486 362.69 87.6381 364.562C83.7822 366.442 79.4523 367.751 74.9536 368.699C72.6963 369.173 70.3988 369.542 68.0692 369.912L60.9678 370.844C62.1246 371.181 63.2974 371.454 64.4703 371.76C65.6512 372.025 66.8401 372.201 68.037 372.434C70.4309 372.836 72.865 373.053 75.3312 373.157C80.2475 373.302 85.3004 372.78 90.273 371.213C95.2295 369.647 100.025 366.875 103.801 362.811C105.697 360.77 107.303 358.376 108.476 355.934C109.641 353.484 110.461 351.042 111.2 348.76C112.589 344.141 113.851 340.261 116.02 336.871C116.269 336.429 116.59 336.044 116.879 335.626C117.168 335.208 117.449 334.799 117.795 334.421C118.132 334.035 118.454 333.65 118.775 333.248C119.12 332.855 119.53 332.461 119.9 332.059L121.048 330.862L122.261 329.73C123.049 328.942 123.892 328.227 124.744 327.504C131.524 321.704 139.629 317.262 148.683 313.993Z" fill="#FFFBF5"/>
</g>
<g clip-path="url(#clip7_2286_2005)">
<path d="M304.395 320.311C313.692 322.768 322.155 326.483 329.425 331.658C330.336 332.303 331.239 332.942 332.093 333.657L333.4 334.679L334.649 335.771C335.06 336.13 335.495 336.495 335.874 336.856C336.229 337.228 336.599 337.583 336.953 337.939C337.33 338.285 337.655 338.676 337.971 339.059C338.288 339.458 338.649 339.806 338.936 340.224C341.387 343.42 342.99 347.166 344.779 351.645C345.716 353.853 346.754 356.221 348.121 358.553C349.519 360.881 351.313 363.126 353.397 364.992C357.514 368.71 362.543 371.058 367.609 372.177C372.684 373.303 377.772 373.387 382.664 372.804C385.111 372.484 387.51 372.063 389.866 371.445C391.038 371.108 392.214 370.819 393.36 370.46C394.502 370.053 395.646 369.678 396.769 369.241L389.613 368.935C387.253 368.779 384.939 368.604 382.649 368.329C378.085 367.779 373.657 366.854 369.651 365.32C365.661 363.784 362.073 361.591 359.355 358.75C356.623 356.014 354.949 352.476 353.188 348.139C352.275 346.01 351.345 343.689 350.109 341.362C348.858 339.069 347.405 336.753 345.572 334.713C345.139 334.187 344.631 333.731 344.16 333.233C343.681 332.742 343.211 332.26 342.683 331.846L341.126 330.556C340.606 330.15 340.085 329.817 339.568 329.443L338.014 328.362L336.402 327.367C335.335 326.694 334.211 326.108 333.095 325.529C324.138 320.97 313.981 318.993 304.395 320.311Z" fill="#FFFBF5"/>
<path d="M332.443 286.853C332.818 296.521 336.538 306.177 342.605 314.184C343.378 315.172 344.144 316.185 344.992 317.119L346.254 318.532L347.589 319.874C348.048 320.318 348.467 320.773 348.957 321.213L350.5 322.521C350.999 322.969 351.565 323.355 352.122 323.733C352.687 324.103 353.225 324.54 353.827 324.866C356.147 326.307 358.688 327.325 361.166 328.172C363.665 328.992 366.112 329.486 368.376 330.021C372.954 330.997 376.723 332.037 379.901 334.241C383.173 336.421 385.965 339.562 388.167 343.231C390.377 346.908 392.061 351.106 393.4 355.505C394.07 357.712 394.639 359.968 395.211 362.256L396.762 369.249C396.996 368.067 397.166 366.874 397.367 365.679C397.528 364.48 397.6 363.28 397.727 362.067C397.917 359.647 397.92 357.204 397.808 354.738C397.521 349.828 396.558 344.84 394.562 340.024C392.567 335.224 389.386 330.689 385.006 327.284C382.807 325.574 380.282 324.184 377.746 323.229C375.204 322.284 372.699 321.681 370.362 321.145C365.639 320.165 361.663 319.249 358.096 317.385C357.634 317.176 357.222 316.89 356.78 316.638C356.339 316.387 355.906 316.143 355.5 315.832C355.086 315.529 354.674 315.243 354.245 314.958C353.823 314.649 353.395 314.275 352.963 313.942L351.67 312.903L350.435 311.793C349.582 311.078 348.796 310.301 348.001 309.516C341.629 303.27 336.493 295.585 332.443 286.853Z" fill="#FFFBF5"/>
</g>
<path d="M171.345 230.619C171.345 230.619 136.354 234.719 141.409 262.923C146.463 291.127 190.5 318.973 223.393 317.907C256.287 316.841 309.412 293.913 319.625 246.179C319.625 246.179 319.625 239.815 281.722 255.789C250.228 270.5 235.587 239.567 266.922 230.619C266.922 230.619 244.983 225.313 199.387 255.954C199.387 255.954 167.717 272.252 159.356 255.345C150.994 238.438 171.345 230.619 171.345 230.619Z" fill="#FFFBF5" stroke="#FFFBF5" stroke-width="0.5" stroke-miterlimit="10"/>
<defs>
<clipPath id="clip0_2286_2005">
<rect width="49.226" height="102.224" fill="white" transform="translate(202.771)"/>
</clipPath>
<clipPath id="clip1_2286_2005">
<rect width="49.226" height="102.224" fill="white" transform="translate(449.346 199.336) rotate(90)"/>
</clipPath>
<clipPath id="clip2_2286_2005">
<rect width="49.226" height="102.224" fill="white" transform="translate(41.2402 93.2346) rotate(-45)"/>
</clipPath>
<clipPath id="clip3_2286_2005">
<rect width="49.226" height="102.224" fill="white" transform="translate(384.389 61.3225) rotate(50.027)"/>
</clipPath>
<clipPath id="clip4_2286_2005">
<rect width="49.226" height="102.224" fill="white" transform="matrix(4.37114e-08 1 1 -4.37114e-08 0 199.336)"/>
</clipPath>
<clipPath id="clip5_2286_2005">
<rect width="49.226" height="102.224" fill="white" transform="matrix(1 0 0 -1 202.771 446)"/>
</clipPath>
<clipPath id="clip6_2286_2005">
<rect width="49.226" height="102.224" fill="white" transform="matrix(0.707107 0.707107 0.707107 -0.707107 43.5596 353.436)"/>
</clipPath>
<clipPath id="clip7_2286_2005">
<rect width="49.226" height="102.224" fill="white" transform="matrix(0.642427 -0.766347 -0.766347 -0.642427 380.946 388.115)"/>
</clipPath>
</defs>
</svg>
