<svg width="38" height="38" viewBox="0 0 38 38" fill="none" xmlns="http://www.w3.org/2000/svg">
<path d="M11.4883 13.1288C12.835 15.9337 14.6709 18.5625 16.9958 20.8875C19.3208 23.2125 21.9496 25.0483 24.7545 26.395C24.9958 26.5108 25.1164 26.5687 25.2691 26.6132C25.8115 26.7714 26.4776 26.6578 26.937 26.3288C27.0663 26.2362 27.1769 26.1257 27.3981 25.9045C28.0745 25.228 28.4128 24.8898 28.7529 24.6686C30.0355 23.8347 31.6891 23.8347 32.9717 24.6686C33.3118 24.8898 33.65 25.228 34.3265 25.9045L34.7036 26.2815C35.7319 27.3098 36.246 27.824 36.5253 28.3762C37.0808 29.4743 37.0808 30.7712 36.5253 31.8694C36.246 32.4216 35.7319 32.9358 34.7036 33.9641L34.3986 34.2691C33.3738 35.2939 32.8614 35.8062 32.1648 36.1976C31.3917 36.6318 30.1911 36.944 29.3045 36.9414C28.5055 36.939 27.9594 36.784 26.8673 36.474C20.9979 34.8081 15.4595 31.6649 10.8389 27.0444C6.2184 22.4238 3.07517 16.8854 1.40927 11.016C1.09928 9.92387 0.944288 9.37779 0.941911 8.57877C0.939272 7.69215 1.25149 6.49155 1.68573 5.71854C2.07706 5.02191 2.58945 4.50952 3.61423 3.48475L3.91924 3.17974C4.94753 2.15144 5.46168 1.63729 6.01387 1.358C7.11205 0.802542 8.40896 0.802542 9.50714 1.358C10.0593 1.63729 10.5735 2.15144 11.6018 3.17974L11.9788 3.55679C12.6553 4.23325 12.9935 4.57148 13.2147 4.9116C14.0486 6.19423 14.0486 7.84778 13.2147 9.13041C12.9935 9.47053 12.6553 9.80876 11.9788 10.4852C11.7576 10.7064 11.6471 10.817 11.5545 10.9463C11.2255 11.4057 11.1119 12.0718 11.2701 12.6142C11.3146 12.7669 11.3725 12.8875 11.4883 13.1288Z" stroke="#FFFBF5" stroke-linecap="round" stroke-linejoin="round"/>
</svg>
