<svg width="144" height="161" viewBox="0 0 144 161" fill="none" xmlns="http://www.w3.org/2000/svg">
<path d="M137.496 61.7948L125.846 49.0901V16.752C125.846 7.5183 119.132 0 110.886 0H33.0958C24.8501 0 18.1362 7.5183 18.1362 16.752V49.1035L6.48558 61.7948C2.48237 66.1838 0.18457 72.295 0.18457 78.5669V160.819H143.797V78.5602C143.797 72.2883 141.505 66.1771 137.496 61.7948ZM133.32 66.5926C133.583 66.8874 133.84 67.189 134.085 67.5039L125.852 76.7242V58.4444L133.32 66.5926ZM33.0958 6.7008H68.999V20.1024H63.0151C54.7694 20.1024 48.0555 27.6207 48.0555 36.8544C48.0555 46.0345 53.9256 53.7471 62.0218 55.2079L81.0086 58.6253C86.1847 59.5567 89.9425 64.4885 89.9425 70.3584C89.9425 75.9 85.9154 80.4096 80.9667 80.4096H63.0151C58.0665 80.4096 54.0393 75.9 54.0393 70.3584V67.008H48.0555V70.3584C48.0555 79.5921 54.7694 87.1104 63.0151 87.1104H68.999V100.512H74.9829V87.1104H80.9667C89.2125 87.1104 95.9264 79.5921 95.9264 70.3584C95.9264 61.1783 90.0562 53.4657 81.96 52.0049L62.9732 48.5875C57.7972 47.6561 54.0393 42.7243 54.0393 36.8544C54.0393 31.3129 58.0665 26.8032 63.0151 26.8032H80.9667C85.9154 26.8032 89.9425 31.3129 89.9425 36.8544V40.2048H95.9264V36.8544C95.9264 27.6207 89.2125 20.1024 80.9667 20.1024H74.9829V6.7008H110.886C115.835 6.7008 119.862 11.2104 119.862 16.752V83.425L86.801 120.454C78.633 129.594 65.3429 129.594 57.1809 120.454L24.12 83.425V16.752C24.12 11.2104 28.1472 6.7008 33.0958 6.7008ZM18.1362 58.4511V76.7175L9.90236 67.4972C10.1477 67.1823 10.399 66.8807 10.6623 66.5926L18.1362 58.4511ZM137.813 154.118H6.16843V78.5669C6.16843 76.8649 6.40779 75.1763 6.85658 73.5681L52.9443 125.184C58.1921 131.061 65.0915 133.996 71.9849 133.996C78.8784 133.996 85.7778 131.061 91.0256 125.184L137.119 73.5614C137.568 75.1696 137.807 76.8515 137.807 78.5602L137.813 154.118Z" fill="#FFFBF5"/>
</svg>
