<svg width="146" height="161" viewBox="0 0 146 161" fill="none" xmlns="http://www.w3.org/2000/svg">
<g style="mix-blend-mode:lighten">
<path d="M6.37716 16.752C6.37716 11.2104 10.4459 6.7008 15.4456 6.7008H72.879V53.6064H115.198V65.44C117.06 64.0865 119.116 63.0948 121.244 62.2773V48.869L77.1532 0H15.4456C7.11473 0 0.331543 7.5183 0.331543 16.752V160.819H54.7421V154.118H6.37716V16.752ZM78.9246 11.4383L110.924 46.9056H78.9246V11.4383ZM141.001 78.6138C135.3 72.2883 125.331 72.2883 119.63 78.6138L66.8394 137.125V160.819H88.2167L141.007 102.308C143.861 99.1451 145.432 94.937 145.432 90.4608C145.432 85.9847 143.855 81.7766 141.001 78.6138ZM136.727 97.5637L85.7078 154.112H72.879V139.893L123.898 83.3446C127.32 79.5519 133.299 79.5519 136.721 83.3446C138.432 85.2409 139.375 87.7671 139.375 90.4541C139.375 93.1412 138.432 95.6607 136.721 97.5637H136.727Z" fill="#FFFBF5"/>
</g>
</svg>
