<svg width="35" height="35" viewBox="0 0 35 35" fill="none" xmlns="http://www.w3.org/2000/svg">
<path d="M25.9 35H9.1C6.68653 35 4.37191 34.0413 2.66533 32.3347C0.958747 30.6281 0 28.3135 0 25.9V9.1C0 6.68653 0.958747 4.37191 2.66533 2.66533C4.37191 0.958747 6.68653 0 9.1 0H25.9C28.3135 0 30.6281 0.958747 32.3347 2.66533C34.0413 4.37191 35 6.68653 35 9.1V25.9C35 28.3135 34.0413 30.6281 32.3347 32.3347C30.6281 34.0413 28.3135 35 25.9 35ZM9.1 1.4C7.05783 1.4 5.09931 2.21125 3.65528 3.65528C2.21125 5.09931 1.4 7.05783 1.4 9.1V25.9C1.4 27.9422 2.21125 29.9007 3.65528 31.3447C5.09931 32.7888 7.05783 33.6 9.1 33.6H25.9C27.9422 33.6 29.9007 32.7888 31.3447 31.3447C32.7888 29.9007 33.6 27.9422 33.6 25.9V9.1C33.6 7.05783 32.7888 5.09931 31.3447 3.65528C29.9007 2.21125 27.9422 1.4 25.9 1.4H9.1Z" fill="#FFFBF5"/>
<path d="M17.1822 27.3734C15.2943 27.3734 13.4487 26.8135 11.879 25.7647C10.3093 24.7158 9.0858 23.225 8.36333 21.4808C7.64086 19.7366 7.45182 17.8173 7.82014 15.9657C8.18845 14.1141 9.09757 12.4132 10.4325 11.0783C11.7675 9.74332 13.4683 8.8342 15.3199 8.46589C17.1716 8.09757 19.0909 8.28661 20.8351 9.00908C22.5793 9.73155 24.0701 10.955 25.1189 12.5248C26.1678 14.0945 26.7276 15.94 26.7276 17.8279C26.7255 20.3589 25.7191 22.7855 23.9294 24.5752C22.1398 26.3648 19.7131 27.3712 17.1822 27.3734ZM17.1822 9.92655C15.6175 9.92655 14.0879 10.3906 12.787 11.2601C11.4861 12.1296 10.4723 13.3654 9.87392 14.8111C9.2755 16.2569 9.11935 17.8477 9.4252 19.3822C9.73106 20.9167 10.4852 22.3261 11.5922 23.4319C12.6992 24.5377 14.1093 25.2904 15.6441 25.5947C17.179 25.8989 18.7696 25.7411 20.2147 25.1412C21.6598 24.5413 22.8946 23.5263 23.7627 22.2245C24.6308 20.9227 25.0933 19.3926 25.0917 17.8279C25.0896 15.7308 24.2555 13.7203 22.7727 12.2374C21.2898 10.7546 19.2793 9.92054 17.1822 9.91837V9.92655Z" fill="#FFFBF5"/>
<path d="M27.0401 8.27044C26.7255 8.27044 26.4179 8.17714 26.1563 8.00232C25.8946 7.82751 25.6907 7.57905 25.5703 7.28835C25.4499 6.99765 25.4184 6.67777 25.4798 6.36916C25.5412 6.06056 25.6927 5.77708 25.9152 5.55459C26.1377 5.3321 26.4212 5.18058 26.7298 5.11919C27.0384 5.05781 27.3582 5.08931 27.6489 5.20972C27.9396 5.33014 28.1881 5.53405 28.3629 5.79567C28.5377 6.05729 28.631 6.36488 28.631 6.67953C28.631 7.10147 28.4634 7.50612 28.1651 7.80448C27.8667 8.10283 27.4621 8.27044 27.0401 8.27044ZM27.0401 5.99771C26.9053 5.99771 26.7735 6.0377 26.6613 6.11262C26.5492 6.18754 26.4618 6.29403 26.4102 6.41861C26.3586 6.5432 26.3451 6.68029 26.3714 6.81255C26.3977 6.94481 26.4627 7.0663 26.558 7.16165C26.6534 7.257 26.7749 7.32194 26.9071 7.34825C27.0394 7.37456 27.1765 7.36106 27.301 7.30945C27.4256 7.25784 27.5321 7.17045 27.607 7.05833C27.682 6.94621 27.7219 6.81438 27.7219 6.67953C27.7219 6.4987 27.6501 6.32528 27.5222 6.19741C27.3944 6.06955 27.221 5.99771 27.0401 5.99771Z" fill="#FFFBF5"/>
</svg>
